<svg xmlns="http://www.w3.org/2000/svg" xmlns:xlink="http://www.w3.org/1999/xlink" width="250" zoomAndPan="magnify" viewBox="0 0 187.5 37.5" height="50" preserveAspectRatio="xMidYMid meet" version="1.2"><defs><clipPath id="5b1afd1890"><path d="M 36.566406 3.699219 L 60.253906 3.699219 L 60.253906 29.605469 L 36.566406 29.605469 Z M 36.566406 3.699219 "/></clipPath></defs><g id="4aa70c7749"><path style=" stroke:none;fill-rule:nonzero;fill:#ffffff;fill-opacity:1;" d="M 46.804688 19.992188 C 46.804688 20.683594 46.242188 21.242188 45.550781 21.242188 C 44.859375 21.242188 44.300781 20.683594 44.300781 19.992188 L 44.300781 17.898438 C 44.300781 17.207031 44.859375 16.648438 45.550781 16.648438 C 46.242188 16.648438 46.804688 17.207031 46.804688 17.898438 Z M 52.550781 17.898438 C 52.550781 17.207031 51.992188 16.648438 51.300781 16.648438 C 50.609375 16.648438 50.050781 17.207031 50.050781 17.898438 L 50.050781 19.992188 C 50.050781 20.683594 50.609375 21.242188 51.300781 21.242188 C 51.992188 21.242188 52.550781 20.683594 52.550781 19.992188 Z M 52.550781 17.898438 "/><g clip-rule="nonzero" clip-path="url(#5b1afd1890)"><path style=" stroke:none;fill-rule:nonzero;fill:#12e88f;fill-opacity:1;" d="M 60.195312 19.773438 L 60.195312 22.726562 C 60.195312 23.820312 59.304688 24.707031 58.210938 24.707031 C 57.792969 24.707031 57.402344 24.578125 57.082031 24.355469 C 55.441406 27.464844 52.179688 29.589844 48.425781 29.589844 C 44.652344 29.589844 41.375 27.441406 39.742188 24.308594 C 39.410156 24.558594 39 24.707031 38.550781 24.707031 C 37.457031 24.707031 36.566406 23.820312 36.566406 22.726562 L 36.566406 19.773438 C 36.566406 18.675781 37.457031 17.789062 38.550781 17.789062 C 38.652344 17.789062 38.75 17.800781 38.84375 17.8125 C 39.4375 14.921875 41.308594 12.4375 44.019531 11.070312 L 45.238281 13.484375 C 42.839844 14.695312 41.347656 17.117188 41.347656 19.804688 C 41.347656 23.710938 44.523438 26.886719 48.425781 26.886719 C 52.328125 26.886719 55.503906 23.710938 55.503906 19.804688 C 55.503906 16.230469 52.839844 13.269531 49.394531 12.796875 C 49.394531 12.796875 49.394531 12.792969 49.394531 12.792969 C 49.394531 12.792969 49.390625 12.792969 49.382812 12.792969 C 49.285156 12.78125 49.1875 12.769531 49.085938 12.757812 C 48.453125 12.640625 47.074219 12.101562 47.074219 9.683594 L 47.074219 7.761719 L 44.863281 7.761719 L 48.425781 3.703125 L 51.988281 7.761719 L 49.777344 7.761719 L 49.777344 9.269531 C 49.808594 9.585938 49.945312 10.070312 50.492188 10.246094 C 50.570312 10.261719 50.648438 10.277344 50.726562 10.296875 C 50.730469 10.296875 50.734375 10.300781 50.742188 10.300781 C 54.382812 11.1875 57.230469 14.117188 58 17.800781 C 58.070312 17.792969 58.140625 17.789062 58.210938 17.789062 C 59.304688 17.789062 60.195312 18.679688 60.195312 19.773438 Z M 60.195312 19.773438 "/></g><g style="fill:#ffffff;fill-opacity:1;"><g transform="translate(0.986842, 27.088816)"><path style="stroke:none" d="M 11.53125 -16.671875 C 12.90625 -16.671875 13.898438 -16.238281 14.515625 -15.375 C 15.097656 -14.5625 15.390625 -13.34375 15.390625 -11.71875 L 15.390625 -11.84375 C 15.390625 -10.226562 15.097656 -9.003906 14.515625 -8.171875 C 13.898438 -7.328125 12.90625 -6.90625 11.53125 -6.90625 L 4.609375 -6.875 L 4.609375 -0.6875 C 4.609375 -0.375 4.535156 -0.175781 4.390625 -0.09375 C 4.242188 -0.0195312 4.128906 0.015625 4.046875 0.015625 L 2.1875 0.015625 C 2.101562 0.015625 1.988281 -0.0195312 1.84375 -0.09375 C 1.695312 -0.175781 1.625 -0.375 1.625 -0.6875 L 1.625 -9.1875 C 1.625 -9.5 1.695312 -9.691406 1.84375 -9.765625 C 1.988281 -9.835938 2.101562 -9.875 2.1875 -9.875 L 11 -9.875 C 11.519531 -9.875 11.878906 -10.019531 12.078125 -10.3125 C 12.296875 -10.613281 12.40625 -11.101562 12.40625 -11.78125 C 12.40625 -12.445312 12.296875 -12.929688 12.078125 -13.234375 C 11.878906 -13.523438 11.519531 -13.671875 11 -13.671875 L 2.1875 -13.671875 C 2.101562 -13.671875 1.988281 -13.707031 1.84375 -13.78125 C 1.695312 -13.863281 1.625 -14.054688 1.625 -14.359375 L 1.625 -15.96875 C 1.625 -16.289062 1.695312 -16.488281 1.84375 -16.5625 C 1.988281 -16.632812 2.101562 -16.671875 2.1875 -16.671875 Z M 11.53125 -16.671875 "/></g></g><g style="fill:#ffffff;fill-opacity:1;"><g transform="translate(19.008496, 27.088816)"><path style="stroke:none" d="M 15.421875 -11.84375 L 15.421875 -11.71875 C 15.421875 -11.726562 15.421875 -11.734375 15.421875 -11.734375 C 15.421875 -11.742188 15.421875 -11.757812 15.421875 -11.78125 C 15.421875 -11.789062 15.421875 -11.796875 15.421875 -11.796875 C 15.421875 -11.804688 15.421875 -11.820312 15.421875 -11.84375 Z M 15.796875 -0.875 C 15.878906 -0.757812 15.910156 -0.597656 15.890625 -0.390625 C 15.847656 -0.117188 15.691406 0.015625 15.421875 0.015625 L 13.1875 0.015625 C 13.019531 0.015625 12.878906 -0.0195312 12.765625 -0.09375 C 12.722656 -0.125 12.6875 -0.164062 12.65625 -0.21875 C 12.625 -0.269531 12.585938 -0.328125 12.546875 -0.390625 L 8.890625 -6.875 L 4.609375 -6.875 L 4.609375 -0.6875 C 4.609375 -0.375 4.535156 -0.175781 4.390625 -0.09375 C 4.253906 -0.0195312 4.140625 0.015625 4.046875 0.015625 L 2.203125 0.015625 C 2.109375 0.015625 1.988281 -0.0195312 1.84375 -0.09375 C 1.695312 -0.175781 1.625 -0.375 1.625 -0.6875 L 1.625 -9.1875 C 1.625 -9.5 1.695312 -9.691406 1.84375 -9.765625 C 1.988281 -9.835938 2.109375 -9.875 2.203125 -9.875 L 11 -9.875 C 11.519531 -9.875 11.878906 -10.019531 12.078125 -10.3125 C 12.296875 -10.613281 12.40625 -11.101562 12.40625 -11.78125 C 12.40625 -12.445312 12.296875 -12.929688 12.078125 -13.234375 C 11.878906 -13.523438 11.519531 -13.671875 11 -13.671875 L 2.203125 -13.671875 C 2.109375 -13.671875 1.988281 -13.707031 1.84375 -13.78125 C 1.695312 -13.863281 1.625 -14.054688 1.625 -14.359375 L 1.625 -15.96875 C 1.625 -16.289062 1.695312 -16.488281 1.84375 -16.5625 C 1.988281 -16.632812 2.109375 -16.671875 2.203125 -16.671875 L 11.53125 -16.671875 C 12.925781 -16.671875 13.925781 -16.238281 14.53125 -15.375 C 15.101562 -14.539062 15.398438 -13.34375 15.421875 -11.78125 C 15.398438 -10.207031 15.101562 -9.003906 14.53125 -8.171875 C 14.019531 -7.472656 13.265625 -7.0625 12.265625 -6.9375 Z M 15.796875 -0.875 "/></g></g><g style="fill:#ffffff;fill-opacity:1;"><g transform="translate(60.566972, 27.088816)"><path style="stroke:none" d="M 12.625 -16.671875 C 13.019531 -16.671875 13.265625 -16.585938 13.359375 -16.421875 C 13.460938 -16.253906 13.515625 -16.101562 13.515625 -15.96875 L 13.515625 -6.328125 C 13.515625 -5.765625 13.488281 -5.238281 13.4375 -4.75 C 13.394531 -4.269531 13.332031 -3.832031 13.25 -3.4375 C 13.15625 -3.03125 13.035156 -2.660156 12.890625 -2.328125 C 12.742188 -2.003906 12.578125 -1.707031 12.390625 -1.4375 C 11.960938 -0.925781 11.4375 -0.554688 10.8125 -0.328125 C 10.15625 -0.0976562 9.390625 0.015625 8.515625 0.015625 L 2.1875 0.015625 C 2.101562 0.015625 1.988281 -0.0195312 1.84375 -0.09375 C 1.695312 -0.175781 1.625 -0.375 1.625 -0.6875 L 1.625 -2.28125 C 1.625 -2.59375 1.695312 -2.789062 1.84375 -2.875 C 1.988281 -2.957031 2.101562 -3 2.1875 -3 L 8.4375 -3 C 8.882812 -3 9.226562 -3.046875 9.46875 -3.140625 C 9.738281 -3.210938 9.941406 -3.359375 10.078125 -3.578125 C 10.222656 -3.765625 10.332031 -4.0625 10.40625 -4.46875 C 10.445312 -4.675781 10.472656 -4.90625 10.484375 -5.15625 C 10.492188 -5.414062 10.5 -5.691406 10.5 -5.984375 L 10.5 -13.640625 C 10.5 -13.640625 10.332031 -13.640625 10 -13.640625 C 9.675781 -13.648438 9.273438 -13.65625 8.796875 -13.65625 C 8.316406 -13.65625 7.832031 -13.65625 7.34375 -13.65625 C 6.851562 -13.664062 6.441406 -13.671875 6.109375 -13.671875 C 5.785156 -13.671875 5.625 -13.671875 5.625 -13.671875 C 5.53125 -13.671875 5.40625 -13.707031 5.25 -13.78125 C 5.101562 -13.863281 5.03125 -14.054688 5.03125 -14.359375 L 5.03125 -15.96875 C 5.03125 -16.289062 5.101562 -16.488281 5.25 -16.5625 C 5.40625 -16.632812 5.53125 -16.671875 5.625 -16.671875 Z M 12.625 -16.671875 "/></g></g><g style="fill:#ffffff;fill-opacity:1;"><g transform="translate(76.707579, 27.088816)"><path style="stroke:none" d="M 13.78125 -3.625 C 13.875 -3.625 13.992188 -3.585938 14.140625 -3.515625 C 14.285156 -3.441406 14.359375 -3.25 14.359375 -2.9375 L 14.359375 -0.703125 C 14.359375 -0.398438 14.285156 -0.207031 14.140625 -0.125 C 13.992188 -0.0507812 13.875 -0.015625 13.78125 -0.015625 L 6.59375 -0.015625 C 6.144531 -0.015625 5.734375 -0.0390625 5.359375 -0.09375 C 4.984375 -0.15625 4.640625 -0.242188 4.328125 -0.359375 C 3.671875 -0.585938 3.144531 -0.960938 2.75 -1.484375 C 2.34375 -2.003906 2.050781 -2.660156 1.875 -3.453125 C 1.8125 -3.796875 1.753906 -4.171875 1.703125 -4.578125 C 1.660156 -4.984375 1.632812 -5.421875 1.625 -5.890625 L 1.625 -5.984375 L 1.65625 -8.53125 C 1.695312 -8.6875 1.769531 -8.859375 1.875 -9.046875 C 2.175781 -9.566406 2.632812 -9.847656 3.25 -9.890625 L 13.703125 -9.921875 C 13.773438 -9.921875 13.882812 -9.878906 14.03125 -9.796875 C 14.1875 -9.722656 14.265625 -9.535156 14.265625 -9.234375 L 14.265625 -7.625 C 14.265625 -7.3125 14.1875 -7.113281 14.03125 -7.03125 C 13.882812 -6.957031 13.773438 -6.921875 13.703125 -6.921875 L 4.65625 -6.921875 C 4.65625 -6.921875 4.648438 -6.84375 4.640625 -6.6875 C 4.640625 -6.539062 4.632812 -6.375 4.625 -6.1875 C 4.613281 -6 4.609375 -5.832031 4.609375 -5.6875 C 4.609375 -5.539062 4.609375 -5.46875 4.609375 -5.46875 C 4.628906 -5.40625 4.640625 -5.34375 4.640625 -5.28125 C 4.640625 -5.226562 4.644531 -5.175781 4.65625 -5.125 C 4.707031 -4.738281 4.820312 -4.429688 5 -4.203125 C 5.15625 -4.003906 5.359375 -3.859375 5.609375 -3.765625 C 5.753906 -3.722656 5.910156 -3.6875 6.078125 -3.65625 C 6.242188 -3.632812 6.4375 -3.625 6.65625 -3.625 Z M 3.40625 -9.734375 Z M 13.796875 -16.71875 C 13.878906 -16.71875 13.992188 -16.675781 14.140625 -16.59375 C 14.285156 -16.507812 14.359375 -16.3125 14.359375 -16 L 14.359375 -14.40625 C 14.359375 -14.09375 14.285156 -13.894531 14.140625 -13.8125 C 13.992188 -13.738281 13.878906 -13.703125 13.796875 -13.703125 L 2.171875 -13.71875 C 2.085938 -13.71875 1.972656 -13.753906 1.828125 -13.828125 C 1.691406 -13.898438 1.625 -14.09375 1.625 -14.40625 L 1.625 -15.984375 C 1.625 -16.304688 1.691406 -16.507812 1.828125 -16.59375 C 1.972656 -16.675781 2.085938 -16.71875 2.171875 -16.71875 Z M 13.796875 -16.71875 "/></g></g><g style="fill:#ffffff;fill-opacity:1;"><g transform="translate(93.697696, 27.088816)"><path style="stroke:none" d="M 13.984375 -16.671875 C 14.066406 -16.671875 14.179688 -16.628906 14.328125 -16.546875 C 14.472656 -16.472656 14.546875 -16.28125 14.546875 -15.96875 L 14.546875 -14.40625 C 14.546875 -14.082031 14.472656 -13.878906 14.328125 -13.796875 C 14.179688 -13.710938 14.066406 -13.671875 13.984375 -13.671875 L 6.71875 -13.671875 C 6.257812 -13.671875 5.910156 -13.625 5.671875 -13.53125 C 5.421875 -13.457031 5.21875 -13.3125 5.0625 -13.09375 C 4.914062 -12.882812 4.800781 -12.585938 4.71875 -12.203125 C 4.6875 -12.015625 4.660156 -11.796875 4.640625 -11.546875 C 4.617188 -11.296875 4.609375 -11.015625 4.609375 -10.703125 L 4.609375 -5.984375 C 4.609375 -5.691406 4.617188 -5.414062 4.640625 -5.15625 C 4.660156 -4.90625 4.6875 -4.675781 4.71875 -4.46875 C 4.757812 -4.28125 4.804688 -4.113281 4.859375 -3.96875 C 4.910156 -3.820312 4.976562 -3.691406 5.0625 -3.578125 C 5.21875 -3.359375 5.421875 -3.210938 5.671875 -3.140625 C 5.910156 -3.046875 6.257812 -3 6.71875 -3 L 13.984375 -3 C 14.066406 -3 14.179688 -2.957031 14.328125 -2.875 C 14.472656 -2.789062 14.546875 -2.59375 14.546875 -2.28125 L 14.546875 -0.6875 C 14.546875 -0.375 14.472656 -0.175781 14.328125 -0.09375 C 14.179688 -0.0195312 14.066406 0.015625 13.984375 0.015625 L 6.609375 0.015625 C 5.734375 0.015625 4.972656 -0.0976562 4.328125 -0.328125 C 3.710938 -0.535156 3.191406 -0.90625 2.765625 -1.4375 C 2.347656 -1.976562 2.050781 -2.640625 1.875 -3.421875 C 1.78125 -3.828125 1.710938 -4.269531 1.671875 -4.75 C 1.640625 -5.238281 1.625 -5.765625 1.625 -6.328125 L 1.625 -10.34375 C 1.625 -10.894531 1.640625 -11.410156 1.671875 -11.890625 C 1.710938 -12.378906 1.78125 -12.820312 1.875 -13.21875 C 2.050781 -14.019531 2.347656 -14.679688 2.765625 -15.203125 C 3.160156 -15.710938 3.679688 -16.085938 4.328125 -16.328125 C 4.972656 -16.554688 5.734375 -16.671875 6.609375 -16.671875 Z M 13.984375 -16.671875 "/></g></g><g style="fill:#ffffff;fill-opacity:1;"><g transform="translate(110.869841, 27.088816)"><path style="stroke:none" d="M 15.59375 -16.671875 C 15.695312 -16.671875 15.820312 -16.632812 15.96875 -16.5625 C 16.113281 -16.488281 16.1875 -16.296875 16.1875 -15.984375 L 16.1875 -14.40625 C 16.1875 -14.070312 16.113281 -13.863281 15.96875 -13.78125 C 15.820312 -13.707031 15.695312 -13.671875 15.59375 -13.671875 L 10.40625 -13.671875 L 10.40625 -0.6875 C 10.40625 -0.375 10.332031 -0.179688 10.1875 -0.109375 C 10.039062 -0.0351562 9.921875 0 9.828125 0 L 7.96875 0 C 7.882812 0 7.769531 -0.0351562 7.625 -0.109375 C 7.476562 -0.179688 7.40625 -0.375 7.40625 -0.6875 L 7.40625 -13.671875 L 2.203125 -13.671875 C 2.109375 -13.671875 1.988281 -13.707031 1.84375 -13.78125 C 1.695312 -13.863281 1.625 -14.070312 1.625 -14.40625 L 1.625 -15.984375 C 1.625 -16.296875 1.695312 -16.488281 1.84375 -16.5625 C 1.988281 -16.632812 2.109375 -16.671875 2.203125 -16.671875 Z M 15.59375 -16.671875 "/></g></g><g style="fill:#ffffff;fill-opacity:1;"><g transform="translate(129.680324, 27.088816)"><path style="stroke:none" d="M 15.421875 -11.84375 L 15.421875 -11.71875 C 15.421875 -11.726562 15.421875 -11.734375 15.421875 -11.734375 C 15.421875 -11.742188 15.421875 -11.757812 15.421875 -11.78125 C 15.421875 -11.789062 15.421875 -11.796875 15.421875 -11.796875 C 15.421875 -11.804688 15.421875 -11.820312 15.421875 -11.84375 Z M 15.796875 -0.875 C 15.878906 -0.757812 15.910156 -0.597656 15.890625 -0.390625 C 15.847656 -0.117188 15.691406 0.015625 15.421875 0.015625 L 13.1875 0.015625 C 13.019531 0.015625 12.878906 -0.0195312 12.765625 -0.09375 C 12.722656 -0.125 12.6875 -0.164062 12.65625 -0.21875 C 12.625 -0.269531 12.585938 -0.328125 12.546875 -0.390625 L 8.890625 -6.875 L 4.609375 -6.875 L 4.609375 -0.6875 C 4.609375 -0.375 4.535156 -0.175781 4.390625 -0.09375 C 4.253906 -0.0195312 4.140625 0.015625 4.046875 0.015625 L 2.203125 0.015625 C 2.109375 0.015625 1.988281 -0.0195312 1.84375 -0.09375 C 1.695312 -0.175781 1.625 -0.375 1.625 -0.6875 L 1.625 -9.1875 C 1.625 -9.5 1.695312 -9.691406 1.84375 -9.765625 C 1.988281 -9.835938 2.109375 -9.875 2.203125 -9.875 L 11 -9.875 C 11.519531 -9.875 11.878906 -10.019531 12.078125 -10.3125 C 12.296875 -10.613281 12.40625 -11.101562 12.40625 -11.78125 C 12.40625 -12.445312 12.296875 -12.929688 12.078125 -13.234375 C 11.878906 -13.523438 11.519531 -13.671875 11 -13.671875 L 2.203125 -13.671875 C 2.109375 -13.671875 1.988281 -13.707031 1.84375 -13.78125 C 1.695312 -13.863281 1.625 -14.054688 1.625 -14.359375 L 1.625 -15.96875 C 1.625 -16.289062 1.695312 -16.488281 1.84375 -16.5625 C 1.988281 -16.632812 2.109375 -16.671875 2.203125 -16.671875 L 11.53125 -16.671875 C 12.925781 -16.671875 13.925781 -16.238281 14.53125 -15.375 C 15.101562 -14.539062 15.398438 -13.34375 15.421875 -11.78125 C 15.398438 -10.207031 15.101562 -9.003906 14.53125 -8.171875 C 14.019531 -7.472656 13.265625 -7.0625 12.265625 -6.9375 Z M 15.796875 -0.875 "/></g></g><g style="fill:#ffffff;fill-opacity:1;"><g transform="translate(148.207634, 27.088816)"><path style="stroke:none" d="M 15.390625 -15.203125 C 15.785156 -14.710938 16.078125 -14.050781 16.265625 -13.21875 C 16.347656 -12.820312 16.410156 -12.378906 16.453125 -11.890625 C 16.503906 -11.410156 16.53125 -10.894531 16.53125 -10.34375 L 16.53125 -6.328125 C 16.53125 -5.765625 16.503906 -5.238281 16.453125 -4.75 C 16.410156 -4.269531 16.347656 -3.832031 16.265625 -3.4375 C 16.078125 -2.613281 15.785156 -1.945312 15.390625 -1.4375 C 14.972656 -0.90625 14.445312 -0.535156 13.8125 -0.328125 C 13.164062 -0.0976562 12.40625 0.015625 11.53125 0.015625 L 6.59375 0.015625 C 5.707031 0.015625 4.953125 -0.0976562 4.328125 -0.328125 C 3.691406 -0.535156 3.164062 -0.910156 2.75 -1.453125 C 2.34375 -1.984375 2.050781 -2.644531 1.875 -3.4375 C 1.78125 -3.832031 1.710938 -4.269531 1.671875 -4.75 C 1.640625 -5.238281 1.625 -5.765625 1.625 -6.328125 L 1.625 -10.34375 C 1.625 -11.5 1.707031 -12.457031 1.875 -13.21875 C 2.050781 -14.007812 2.34375 -14.671875 2.75 -15.203125 C 3.164062 -15.710938 3.691406 -16.085938 4.328125 -16.328125 C 4.972656 -16.554688 5.726562 -16.671875 6.59375 -16.671875 L 11.53125 -16.671875 C 12.40625 -16.671875 13.164062 -16.554688 13.8125 -16.328125 C 14.445312 -16.085938 14.972656 -15.710938 15.390625 -15.203125 Z M 13.515625 -10.6875 C 13.515625 -10.976562 13.503906 -11.25 13.484375 -11.5 C 13.472656 -11.75 13.453125 -11.976562 13.421875 -12.1875 C 13.359375 -12.5625 13.242188 -12.863281 13.078125 -13.09375 C 12.941406 -13.28125 12.738281 -13.425781 12.46875 -13.53125 C 12.332031 -13.570312 12.175781 -13.601562 12 -13.625 C 11.832031 -13.65625 11.644531 -13.671875 11.4375 -13.671875 L 6.703125 -13.671875 C 6.484375 -13.671875 6.289062 -13.65625 6.125 -13.625 C 5.957031 -13.601562 5.804688 -13.570312 5.671875 -13.53125 C 5.398438 -13.425781 5.195312 -13.28125 5.0625 -13.09375 C 4.976562 -12.988281 4.910156 -12.859375 4.859375 -12.703125 C 4.804688 -12.546875 4.757812 -12.375 4.71875 -12.1875 C 4.6875 -11.976562 4.660156 -11.75 4.640625 -11.5 C 4.617188 -11.25 4.609375 -10.976562 4.609375 -10.6875 L 4.609375 -5.96875 C 4.609375 -5.675781 4.617188 -5.40625 4.640625 -5.15625 C 4.660156 -4.90625 4.6875 -4.675781 4.71875 -4.46875 C 4.757812 -4.289062 4.804688 -4.125 4.859375 -3.96875 C 4.910156 -3.820312 4.976562 -3.691406 5.0625 -3.578125 C 5.195312 -3.359375 5.398438 -3.210938 5.671875 -3.140625 C 5.910156 -3.046875 6.253906 -3 6.703125 -3 L 11.4375 -3 C 11.875 -3 12.21875 -3.046875 12.46875 -3.140625 C 12.738281 -3.210938 12.941406 -3.359375 13.078125 -3.578125 C 13.234375 -3.785156 13.347656 -4.082031 13.421875 -4.46875 C 13.453125 -4.675781 13.472656 -4.90625 13.484375 -5.15625 C 13.503906 -5.40625 13.515625 -5.675781 13.515625 -5.96875 Z M 13.515625 -10.6875 "/></g></g><g style="fill:#ffffff;fill-opacity:1;"><g transform="translate(167.361959, 27.088816)"><path style="stroke:none" d="M 15.9375 -16.671875 C 16.019531 -16.671875 16.132812 -16.632812 16.28125 -16.5625 C 16.4375 -16.488281 16.515625 -16.289062 16.515625 -15.96875 L 16.515625 -2.59375 C 16.515625 -1.601562 16.375 -0.925781 16.09375 -0.5625 C 15.800781 -0.175781 15.359375 0.015625 14.765625 0.015625 L 13.296875 0.015625 C 13.023438 0.015625 12.796875 -0.00390625 12.609375 -0.046875 C 12.515625 -0.0664062 12.421875 -0.09375 12.328125 -0.125 C 12.234375 -0.164062 12.144531 -0.210938 12.0625 -0.265625 C 11.894531 -0.359375 11.742188 -0.503906 11.609375 -0.703125 C 11.546875 -0.796875 11.472656 -0.90625 11.390625 -1.03125 C 11.304688 -1.15625 11.226562 -1.296875 11.15625 -1.453125 L 4.734375 -12.828125 C 4.722656 -12.859375 4.707031 -12.875 4.6875 -12.875 C 4.675781 -12.882812 4.671875 -12.890625 4.671875 -12.890625 L 4.578125 -12.890625 C 4.578125 -12.890625 4.578125 -12.882812 4.578125 -12.875 C 4.578125 -12.875 4.578125 -12.863281 4.578125 -12.84375 L 4.578125 -0.6875 C 4.578125 -0.375 4.503906 -0.175781 4.359375 -0.09375 C 4.210938 -0.0195312 4.09375 0.015625 4 0.015625 L 2.203125 0.015625 C 2.109375 0.015625 1.988281 -0.0195312 1.84375 -0.09375 C 1.695312 -0.175781 1.625 -0.375 1.625 -0.6875 L 1.625 -14.0625 C 1.625 -15.050781 1.765625 -15.734375 2.046875 -16.109375 C 2.335938 -16.484375 2.773438 -16.671875 3.359375 -16.671875 L 4.875 -16.671875 C 5.007812 -16.671875 5.132812 -16.664062 5.25 -16.65625 C 5.375 -16.65625 5.484375 -16.644531 5.578125 -16.625 C 5.796875 -16.59375 5.988281 -16.515625 6.15625 -16.390625 C 6.289062 -16.296875 6.429688 -16.140625 6.578125 -15.921875 C 6.640625 -15.828125 6.707031 -15.71875 6.78125 -15.59375 C 6.863281 -15.476562 6.941406 -15.347656 7.015625 -15.203125 L 13.421875 -3.828125 C 13.429688 -3.785156 13.445312 -3.765625 13.46875 -3.765625 L 13.578125 -3.765625 C 13.578125 -3.773438 13.578125 -3.78125 13.578125 -3.78125 C 13.578125 -3.78125 13.578125 -3.785156 13.578125 -3.796875 L 13.578125 -15.96875 C 13.578125 -16.289062 13.644531 -16.488281 13.78125 -16.5625 C 13.925781 -16.632812 14.046875 -16.671875 14.140625 -16.671875 Z M 15.9375 -16.671875 "/></g></g></g></svg>